<?xml version="1.0" encoding="UTF-8"?>
<svg xmlns="http://www.w3.org/2000/svg" width="32" height="32" viewBox="0 0 32 32">
  <rect width="32" height="32" fill="#0000FF" />
  <!-- Pixel art recreation based on the provided image -->
  <!-- White pixels for the central shape -->
  <rect x="11" y="6" width="1" height="1" fill="#FFFFFF" />
  <rect x="12" y="6" width="1" height="1" fill="#FFFFFF" />
  <rect x="10" y="7" width="1" height="1" fill="#FFFFFF" />
  <rect x="11" y="7" width="1" height="1" fill="#FFFFFF" />
  <rect x="9" y="8" width="1" height="1" fill="#FFFFFF" />
  <rect x="10" y="8" width="1" height="1" fill="#FFFFFF" />
  <rect x="9" y="9" width="1" height="1" fill="#FFFFFF" />
  <rect x="10" y="9" width="1" height="1" fill="#FFFFFF" />
  <rect x="9" y="10" width="2" height="1" fill="#FFFFFF" />
  <rect x="8" y="11" width="3" height="1" fill="#FFFFFF" />
  <rect x="8" y="12" width="3" height="1" fill="#FFFFFF" />
  <rect x="8" y="13" width="3" height="1" fill="#FFFFFF" />
  <rect x="10" y="14" width="2" height="1" fill="#FFFFFF" />
  <rect x="11" y="15" width="2" height="1" fill="#FFFFFF" />
  <rect x="12" y="16" width="2" height="1" fill="#FFFFFF" />
  <rect x="13" y="17" width="2" height="1" fill="#FFFFFF" />
  <rect x="14" y="18" width="2" height="1" fill="#FFFFFF" />
  <rect x="15" y="19" width="2" height="1" fill="#FFFFFF" />
  <rect x="15" y="20" width="2" height="1" fill="#FFFFFF" />
  <rect x="14" y="21" width="2" height="1" fill="#FFFFFF" />
  <rect x="13" y="22" width="2" height="1" fill="#FFFFFF" />
  <rect x="12" y="23" width="3" height="1" fill="#FFFFFF" />
  <rect x="11" y="24" width="4" height="1" fill="#FFFFFF" />
  <rect x="10" y="25" width="5" height="1" fill="#FFFFFF" />
  
  <!-- Green pixels scattered around -->
  <rect x="5" y="7" width="1" height="1" fill="#00FF00" />
  <rect x="13" y="9" width="1" height="1" fill="#00FF00" />
  <rect x="18" y="11" width="1" height="1" fill="#00FF00" />
  <rect x="4" y="14" width="1" height="1" fill="#00FF00" />
  <rect x="21" y="15" width="1" height="1" fill="#00FF00" />
  <rect x="24" y="18" width="1" height="1" fill="#00FF00" />
  <rect x="6" y="21" width="1" height="1" fill="#00FF00" />
  <rect x="19" y="24" width="1" height="1" fill="#00FF00" />
  <rect x="26" y="26" width="1" height="1" fill="#00FF00" />
  <rect x="3" y="28" width="1" height="1" fill="#00FF00" />
  
  <!-- White pixel dots scattered around -->
  <rect x="2" y="5" width="1" height="1" fill="#FFFFFF" />
  <rect x="17" y="4" width="1" height="1" fill="#FFFFFF" />
  <rect x="23" y="6" width="1" height="1" fill="#FFFFFF" />
  <rect x="28" y="9" width="1" height="1" fill="#FFFFFF" />
  <rect x="7" y="16" width="1" height="1" fill="#FFFFFF" />
  <rect x="22" y="21" width="1" height="1" fill="#FFFFFF" />
  <rect x="27" y="23" width="1" height="1" fill="#FFFFFF" />
  <rect x="4" y="24" width="1" height="1" fill="#FFFFFF" />
  <rect x="29" y="28" width="1" height="1" fill="#FFFFFF" />
</svg> 